<svg width="128" height="139" viewBox="0 0 128 139" fill="none" xmlns="http://www.w3.org/2000/svg">
<path d="M74.112 23.8H74.784V91H67.488V41.272L43.584 67H43.392L19.488 41.176V91H12.192V23.8H12.96L43.488 56.824L74.112 23.8Z" fill="#a78bfa"/>
<path d="M120.088 82.36C120.088 91.864 116.344 100.312 110.2 106.456L119.416 112.696V120.568L105.016 110.872C99.352 114.616 92.44 116.824 85.048 116.824C65.464 116.824 50.008 101.656 50.008 82.36C50.008 63.064 65.464 47.896 85.048 47.896C104.536 47.896 120.088 63.064 120.088 82.36ZM85.048 109.912C89.944 109.912 94.552 108.664 98.488 106.456L90.808 101.272V93.4L104.056 102.328C109.144 97.336 112.312 90.328 112.312 82.36C112.312 66.808 100.216 54.808 85.048 54.808C69.88 54.808 57.784 66.808 57.784 82.36C57.784 97.912 69.88 109.912 85.048 109.912Z" fill="#a78bfa"/>
</svg>
